General
Format : Matroska
Format version : Version 2
File size : 12.1 GiB
Duration : 2 h 5 min
Overall bit rate : 13.8 Mb/s
Video
ID : 1
Format : AVC
Format/Info : Advanced Video Codec
Format profile : High@L4.1
Format settings, CABAC : Yes
Format settings, ReFrames : 4 frames
Muxing mode : Header stripping
Codec ID : V_MPEG4/ISO/AVC
Duration : 2 h 5 min
Bit rate : 10.8 Mb/s
Width : 1920 pixels
Height : 816 pixels
Display aspect ratio : 2.35:1
Frame rate mode : Constant
Frame rate : 23.976 FPS
Color space : YUV
Chroma subsampling : 4:2:0
Bit depth : 8 bits
Scan type : Progressive
Bits/(Pixel*Frame) : 0.287
Stream size : 9.42 GiB (78%)
Language : English
Default : Yes
Forced : No
Audio #1
ID : 2
Format : AC-3
Format/Info : Audio Coding 3
Mode extension : CM (complete main)
Format settings, Endianness : Big
Muxing mode : Header stripping
Codec ID : A_AC3
Duration : 2 h 5 min
Bit rate mode : Constant
Bit rate : 640 kb/s
Channel(s) : 6 channels
Channel positions : Front: L C R, Side: L R, LFE
Sampling rate : 48.0 kHz
Bit depth : 16 bits
Compression mode : Lossy
Delay relative to video : 24ms
Stream size : 574 MiB (5%)
Title : Castellano AC3 5.1 @ 640 kb/s
Language : Spanish
Default : Yes
Forced : Yes
Audio #2
ID : 3
Format : DTS
Format/Info : Digital Theater Systems
Muxing mode : Header stripping
Codec ID : A_DTS
Duration : 2 h 5 min
Bit rate mode : Constant
Bit rate : 1510 kb/s
Channel(s) : 6 channels
Channel positions : Front: L C R, Side: L R, LFE
Sampling rate : 48.0 kHz
Bit depth : 24 bits
Compression mode : Lossy
Stream size : 1.32 GiB (11%)
Title : Inglés DTS 5.1 @ 1536 kb/s
Language : English
Default : No
Forced : No
Audio #3
ID : 4
Format : AC-3
Format/Info : Audio Coding 3
Mode extension : CM (complete main)
Format settings, Endianness : Big
Muxing mode : Header stripping
Codec ID : A_AC3
Duration : 2 h 5 min
Bit rate mode : Constant
Bit rate : 640 Kbps
Channel(s) : 6 channels
Channel positions : Front: L C R, Side: L R, LFE
Sampling rate : 48.0 kHz
Bit depth : 16 bits
Compression mode : Lossy
Delay relative to video : 24 ms
Stream size : 574 MiB (5%)
Title : Inglés AC3 5.1 @ 640 kb/s
Language : English
Default : No
Forced : No
Text #1
ID : 5
Format : UTF-8
Codec ID : S_TEXT/UTF8
Codec ID/Info : UTF-8 Plain Text
Title : Español (completos)
Language : Spanish
Default : No
Forced : No
Text #2
ID : 6
Format : UTF-8
Codec ID : S_TEXT/UTF8
Codec ID/Info : UTF-8 Plain Text
Title : Inglés (completos)
Language : English
Default : No
Forced : No
Text #3
ID : 7
Format : UTF-8
Codec ID : S_TEXT/UTF8
Codec ID/Info : UTF-8 Plain Text
Title : Holandés (completos)
Language : Dutch
Default : No
Forced : No

¡Disfruta y siembra!
Enjoy and seed!